# xmcd CD database file
#
# Track frame offsets:
#	150
#	59829
#	101689
#	122691
#	150033
#	182812
#	190377
#	201755
#	239456
#	250705
#	276963
#
# Disc length: 3859 seconds
#
# Revision: 0
# Processed by: cddbd v1.5.2PL0 Copyright (c) Steve Scherf et al.
# Submitted via: CDex 1.70beta2
#
DISCID=9a0f110b
DTITLE=Sun Ra - Live at The Ann Arbor Blues and Jazz Festival 1972-73-74 cd2
DYEAR=2011
DGENRE=Jazz
TTITLE0=1974 with his Intergalatic Arkestra - Untitled improvisation
TTITLE1=Discipline 27
TTITLE2=Love in outer space
TTITLE3=The shadow world
TTITLE4=Space is the place
TTITLE5=Second stop Jupiter
TTITLE6=Discipline 27-II - What planet is this
TTITLE7=Images
TTITLE8=It is forbidden
TTITLE9=Watusi
TTITLE10=Sun Ra and his band from outer space
EXTD=YEAR: 2011
EXTT0=
EXTT1=
EXTT2=
EXTT3=
EXTT4=
EXTT5=
EXTT6=
EXTT7=
EXTT8=
EXTT9=
EXTT10=
PLAYORDER=
